<svg width="261" height="397" viewBox="0 0 261 397" fill="none" xmlns="http://www.w3.org/2000/svg">
<rect width="261" height="396.215" rx="10" fill="#F7EED2"/>
<path d="M130.6 229.392C120.867 229.392 112.6 227.325 105.8 223.192C99 219.058 93.5333 213.525 89.4 206.592C85.2667 199.525 82.2667 191.658 80.4 182.992C78.5333 174.191 77.6 165.192 77.6 155.992C77.6 146.391 78.5333 137.258 80.4 128.591C82.4 119.925 85.4667 112.325 89.6 105.792C93.7333 99.1248 99.1333 93.9248 105.8 90.1915C112.6 86.3248 120.867 84.3915 130.6 84.3915C140.2 84.3915 148.333 86.3248 155 90.1915C161.667 93.9248 167.067 99.1248 171.2 105.792C175.467 112.325 178.533 119.925 180.4 128.591C182.267 137.258 183.2 146.391 183.2 155.992C183.2 165.192 182.267 174.191 180.4 182.992C178.533 191.658 175.533 199.525 171.4 206.592C167.267 213.525 161.867 219.058 155.2 223.192C148.533 227.325 140.333 229.392 130.6 229.392ZM130.6 213.392C138.6 213.392 145.133 210.792 150.2 205.592C155.267 200.392 158.933 193.458 161.2 184.792C163.6 175.992 164.8 166.325 164.8 155.792C164.8 144.992 163.6 135.458 161.2 127.191C158.933 118.791 155.267 112.258 150.2 107.592C145.267 102.791 138.8 100.391 130.8 100.391C122.4 100.391 115.667 102.791 110.6 107.592C105.533 112.258 101.8 118.791 99.4 127.191C97.1333 135.458 96 144.992 96 155.792C96 166.325 97.1333 175.992 99.4 184.792C101.8 193.458 105.533 200.392 110.6 205.592C115.667 210.792 122.333 213.392 130.6 213.392ZM96 211.792L147.6 101.792H165.6L114 211.792H96Z" fill="#D52680"/>
<rect y="283.577" width="261" height="62.2624" fill="#D52680"/>
<path d="M73.208 330.952V327.016L89.768 301.24H73.208V297.4H94.76V301.336L78.2 327.112H94.76V330.952H73.208ZM101.764 331V297.4H121.492V301.24H105.988V311.896H118.564V315.64H105.988V327.16H121.492V331H101.764ZM128.81 331V297.4H141.146C143.098 297.4 144.842 297.768 146.378 298.504C147.914 299.24 149.114 300.328 149.978 301.768C150.874 303.176 151.322 304.952 151.322 307.096C151.322 309.048 150.842 310.776 149.882 312.28C148.954 313.784 147.626 314.968 145.898 315.832C144.202 316.664 142.202 317.08 139.898 317.08H133.034V331H128.81ZM148.25 331L140.234 316.984L144.218 315.688L153.146 331H148.25ZM133.034 313.24H140.858C141.978 313.24 143.002 312.984 143.93 312.472C144.858 311.96 145.594 311.24 146.138 310.312C146.714 309.384 147.002 308.312 147.002 307.096C147.002 305.304 146.394 303.88 145.178 302.824C143.994 301.768 142.554 301.24 140.858 301.24H133.034V313.24ZM172.528 331.528C169.904 331.528 167.632 331.064 165.712 330.136C163.824 329.208 162.272 327.944 161.056 326.344C159.84 324.712 158.944 322.856 158.368 320.776C157.792 318.664 157.504 316.456 157.504 314.152C157.504 311.848 157.792 309.656 158.368 307.576C158.944 305.464 159.84 303.608 161.056 302.008C162.272 300.376 163.824 299.096 165.712 298.168C167.632 297.24 169.904 296.776 172.528 296.776C175.184 296.776 177.456 297.24 179.344 298.168C181.232 299.096 182.784 300.376 184 302.008C185.216 303.608 186.112 305.464 186.688 307.576C187.264 309.656 187.552 311.848 187.552 314.152C187.552 316.456 187.264 318.664 186.688 320.776C186.112 322.856 185.216 324.712 184 326.344C182.784 327.944 181.232 329.208 179.344 330.136C177.456 331.064 175.184 331.528 172.528 331.528ZM172.528 327.688C174.992 327.688 176.992 327.08 178.528 325.864C180.096 324.648 181.248 323.016 181.984 320.968C182.752 318.888 183.136 316.616 183.136 314.152C183.136 311.656 182.752 309.384 181.984 307.336C181.248 305.288 180.096 303.656 178.528 302.44C176.992 301.224 174.992 300.616 172.528 300.616C170.256 300.616 168.32 301.224 166.72 302.44C165.152 303.656 163.952 305.288 163.12 307.336C162.32 309.384 161.92 311.656 161.92 314.152C161.92 316.616 162.32 318.888 163.12 320.968C163.952 323.016 165.152 324.648 166.72 325.864C168.32 327.08 170.256 327.688 172.528 327.688Z" fill="#F7EED2"/>
<rect x="14.55" y="16.2166" width="231.9" height="364.348" rx="8.5" stroke="#FFC400" stroke-width="3"/>
</svg>
