<svg width="261" height="397" viewBox="0 0 261 397" fill="none" xmlns="http://www.w3.org/2000/svg">
<rect width="261" height="396.215" rx="10" fill="#334155"/>
<path d="M52.8 226.792V210.792H78.2V124.391H53.2V108.392C61.0667 108.392 66.9333 107.925 70.8 106.991C74.8 105.925 77.4667 103.858 78.8 100.791C80.1333 97.7248 80.8 93.1248 80.8 86.9915H95.8V210.792H122.4V226.792H52.8ZM135.339 226.792V210.792H160.739V124.391H135.739V108.392C143.606 108.392 149.472 107.925 153.339 106.991C157.339 105.925 160.006 103.858 161.339 100.791C162.672 97.7248 163.339 93.1248 163.339 86.9915H178.339V210.792H204.939V226.792H135.339Z" fill="#627CC0"/>
<rect y="283.577" width="261" height="62.2624" fill="#627CC0"/>
<path d="M50.656 331V297.4H70.336V301.24H54.88V311.896H67.408V315.64H54.88V327.16H70.336V331H50.656ZM77.6538 331V297.4H81.8778V327.16H97.3818V331H77.6538ZM102.922 331V297.4H122.602V301.24H107.146V311.896H119.674V315.64H107.146V327.16H122.602V331H102.922ZM137.503 331L125.743 297.4H129.775L139.519 325.288L149.263 297.4H153.295L141.583 331H137.503ZM158.328 331V297.4H178.008V301.24H162.552V311.896H175.08V315.64H162.552V327.16H178.008V331H158.328ZM185.326 331V297.4H191.47L206.206 324.952V297.4H210.43V331H204.91L189.55 303.256V331H185.326Z" fill="#334155"/>
<rect x="14.55" y="16.2166" width="231.9" height="364.348" rx="8.5" stroke="#FFC400" stroke-width="3"/>
</svg>
