<svg width="261" height="397" viewBox="0 0 261 397" fill="none" xmlns="http://www.w3.org/2000/svg">
<rect width="261" height="396.215" rx="10" fill="#334155"/>
<path d="M46.8 226.792V210.792H72.2V124.391H47.2V108.392C55.0667 108.392 60.9333 107.925 64.8 106.991C68.8 105.925 71.4667 103.858 72.8 100.791C74.1333 97.7248 74.8 93.1248 74.8 86.9915H89.8V210.792H116.4V226.792H46.8ZM129.539 226.592V210.592C129.539 202.192 131.139 195.058 134.339 189.192C137.539 183.192 141.606 177.992 146.539 173.592C151.472 169.192 156.739 165.192 162.339 161.592C168.072 157.858 173.406 154.125 178.339 150.391C183.272 146.658 187.339 142.458 190.539 137.791C193.739 133.125 195.339 127.592 195.339 121.192C195.339 115.591 193.272 110.725 189.139 106.592C185.006 102.458 179.006 100.391 171.139 100.391C165.939 100.391 161.472 101.525 157.739 103.792C154.139 105.925 151.339 108.725 149.339 112.192C147.472 115.525 146.539 119.125 146.539 122.991H128.939C128.939 115.791 130.539 109.392 133.739 103.792C137.339 97.5248 142.472 92.7248 149.139 89.3915C155.939 86.0582 163.339 84.3915 171.339 84.3915C179.072 84.3915 186.006 85.7915 192.139 88.5915C198.406 91.3915 203.339 95.5248 206.939 100.992C210.672 106.458 212.539 113.192 212.539 121.192C212.539 129.325 210.939 136.325 207.739 142.192C204.539 148.058 200.472 153.192 195.539 157.592C190.606 161.991 185.272 166.058 179.539 169.791C173.939 173.525 168.672 177.325 163.739 181.192C158.806 184.925 154.739 189.192 151.539 193.992C148.339 198.658 146.739 204.192 146.739 210.592H214.739V226.592H129.539Z" fill="#6C6164"/>
<rect y="283.577" width="261" height="62.2624" fill="#6C6164"/>
<path d="M53.84 331V301.24H44.72V297.4H67.184V301.24H58.064V331H53.84ZM76.4971 331L69.2971 297.4H73.7611L79.3771 325.432L87.5851 297.4H92.7691L100.977 325.432L106.593 297.4H111.057L103.857 331H98.3371L90.1771 303.688L82.0171 331H76.4971ZM117.047 331V297.4H136.727V301.24H121.271V311.896H133.799V315.64H121.271V327.16H136.727V331H117.047ZM144.044 331V297.4H148.268V327.16H163.772V331H144.044ZM174.175 331L162.415 297.4H166.447L176.191 325.288L185.935 297.4H189.967L178.255 331H174.175ZM195 331V297.4H214.68V301.24H199.224V311.896H211.752V315.64H199.224V327.16H214.68V331H195Z" fill="#334155"/>
<rect x="14.55" y="16.2166" width="231.9" height="364.348" rx="8.5" stroke="#FFC400" stroke-width="3"/>
</svg>
