<svg width="261" height="397" viewBox="0 0 261 397" fill="none" xmlns="http://www.w3.org/2000/svg">
<rect width="261" height="396.215" rx="10" fill="#F7EED2"/>
<path d="M143.8 226.592V193.192H82V177.192L143.8 86.5915H161V177.192H181.8V193.392H161V226.592H143.8ZM100.4 177.192H143.8V114.992L100.4 177.192Z" fill="#3D9DBC"/>
<rect y="283.577" width="261" height="62.2624" fill="#3D9DBC"/>
<path d="M72.656 331V297.4H92.336V301.24H76.88V311.8H89.408V315.64H76.88V331H72.656ZM111.825 331.528C109.137 331.528 106.833 331.064 104.913 330.136C102.993 329.208 101.409 327.944 100.161 326.344C98.9448 324.712 98.0488 322.856 97.4728 320.776C96.8968 318.664 96.6088 316.456 96.6088 314.152C96.6088 311.848 96.8968 309.656 97.4728 307.576C98.0488 305.464 98.9448 303.608 100.161 302.008C101.409 300.376 102.993 299.096 104.913 298.168C106.833 297.24 109.137 296.776 111.825 296.776C114.513 296.776 116.817 297.24 118.737 298.168C120.657 299.096 122.225 300.376 123.441 302.008C124.689 303.608 125.601 305.464 126.177 307.576C126.753 309.656 127.041 311.848 127.041 314.152C127.041 316.456 126.753 318.664 126.177 320.776C125.601 322.856 124.689 324.712 123.441 326.344C122.225 327.944 120.657 329.208 118.737 330.136C116.817 331.064 114.513 331.528 111.825 331.528ZM111.825 327.688C114.353 327.688 116.401 327.08 117.969 325.864C119.569 324.648 120.737 323.016 121.473 320.968C122.241 318.888 122.625 316.616 122.625 314.152C122.625 311.656 122.241 309.384 121.473 307.336C120.737 305.288 119.569 303.656 117.969 302.44C116.401 301.224 114.353 300.616 111.825 300.616C109.489 300.616 107.505 301.224 105.873 302.44C104.273 303.656 103.057 305.288 102.225 307.336C101.425 309.384 101.025 311.656 101.025 314.152C101.025 316.616 101.425 318.888 102.225 320.968C103.057 323.016 104.273 324.648 105.873 325.864C107.505 327.08 109.489 327.688 111.825 327.688ZM146.056 331.576C142.152 331.576 139.096 330.344 136.888 327.88C134.712 325.416 133.624 322.056 133.624 317.8V297.352H137.848V317.8C137.848 321.064 138.6 323.496 140.104 325.096C141.608 326.696 143.528 327.496 145.864 327.496C147.368 327.496 148.712 327.144 149.896 326.44C151.112 325.736 152.072 324.664 152.776 323.224C153.512 321.784 153.88 319.976 153.88 317.8V297.352H158.104V317.8C158.104 322.056 157.096 325.416 155.08 327.88C153.064 330.344 150.056 331.576 146.056 331.576ZM166.591 331V297.4H178.735C180.751 297.4 182.415 297.704 183.727 298.312C185.071 298.888 186.143 299.656 186.943 300.616C187.743 301.576 188.303 302.632 188.623 303.784C188.975 304.904 189.151 306.008 189.151 307.096C189.151 308.952 188.607 310.744 187.519 312.472C186.431 314.2 184.751 315.48 182.479 316.312L191.023 331H186.031L178.159 316.984H170.911V331H166.591ZM170.815 313.144H178.735C180.495 313.144 181.951 312.568 183.103 311.416C184.255 310.232 184.831 308.792 184.831 307.096C184.831 306.072 184.575 305.128 184.063 304.264C183.551 303.368 182.831 302.648 181.903 302.104C181.007 301.528 179.967 301.24 178.783 301.24H170.815V313.144Z" fill="#F7EED2"/>
<rect x="14.55" y="16.2166" width="231.9" height="364.348" rx="8.5" stroke="#FFC400" stroke-width="3"/>
</svg>
