<svg width="261" height="397" viewBox="0 0 261 397" fill="none" xmlns="http://www.w3.org/2000/svg">
<rect width="261" height="396.215" rx="10" fill="#F7EED2"/>
<path d="M130 229.192C122.8 229.192 116 227.858 109.6 225.192C103.2 222.525 97.7333 218.592 93.2 213.392C88.6667 208.192 85.4667 201.792 83.6 194.192L99.6 187.792C100.4 192.592 102.267 196.925 105.2 200.792C108.133 204.525 111.8 207.525 116.2 209.792C120.6 212.058 125.267 213.192 130.2 213.192C139.133 213.192 146.467 210.392 152.2 204.792C158.067 199.058 161 190.792 161 179.992C161 170.391 157.933 162.858 151.8 157.392C145.667 151.925 138.067 149.192 129 149.192C123.8 149.192 119.133 150.458 115 152.992C111 155.392 107.867 158.525 105.6 162.391L87.2 157.191L99.6 86.7915H169V102.792H112.6L104.8 145.392C106.8 141.792 110.467 138.858 115.8 136.591C121.133 134.192 126.667 132.992 132.4 132.992C140.533 132.992 148.067 134.792 155 138.391C161.933 141.991 167.533 147.258 171.8 154.192C176.067 161.125 178.2 169.725 178.2 179.992C178.2 190.392 175.933 199.258 171.4 206.592C167 213.925 161.133 219.525 153.8 223.392C146.6 227.258 138.667 229.192 130 229.192Z" fill="#438C50"/>
<rect y="283.577" width="261" height="62.2624" fill="#438C50"/>
<path d="M82.656 331V297.4H102.336V301.24H86.88V311.8H99.408V315.64H86.88V331H82.656ZM107.569 331V327.448H113.281V301.048H107.569V297.4H123.217V301.048H117.505V327.352H123.217V331H107.569ZM138.941 331L127.181 297.4H131.213L140.957 325.288L150.701 297.4H154.733L143.021 331H138.941ZM159.765 331V297.4H179.445V301.24H163.989V311.896H176.517V315.64H163.989V327.16H179.445V331H159.765Z" fill="#F7EED2"/>
<rect x="14.55" y="16.2166" width="231.9" height="364.348" rx="8.5" stroke="#FFC400" stroke-width="3"/>
</svg>
