<svg width="261" height="397" viewBox="0 0 261 397" fill="none" xmlns="http://www.w3.org/2000/svg">
<rect width="261" height="396.215" rx="10" fill="#334155"/>
<path d="M100.2 226.592L160 102.792H89V86.7915H177.8V102.391L118 226.592H100.2Z" fill="#AF7182"/>
<rect y="283.577" width="261" height="62.2624" fill="#AF7182"/>
<path d="M72.168 331.576C69.384 331.576 67.08 331.064 65.256 330.04C63.464 328.984 62.088 327.624 61.128 325.96C60.2 324.296 59.624 322.552 59.4 320.728H64.056C64.408 322.776 65.288 324.44 66.696 325.72C68.104 327 69.928 327.672 72.168 327.736C73.576 327.736 74.856 327.512 76.008 327.064C77.192 326.584 78.136 325.928 78.84 325.096C79.544 324.232 79.88 323.224 79.848 322.072C79.848 320.76 79.496 319.736 78.792 319C78.088 318.264 77.16 317.688 76.008 317.272C74.888 316.856 73.64 316.504 72.264 316.216C70.888 315.896 69.512 315.544 68.136 315.16C66.76 314.776 65.496 314.248 64.344 313.576C63.224 312.904 62.312 311.992 61.608 310.84C60.904 309.656 60.552 308.12 60.552 306.232C60.552 304.6 60.952 303.064 61.752 301.624C62.584 300.184 63.848 299.032 65.544 298.168C67.24 297.272 69.4 296.824 72.024 296.824C73.848 296.824 75.464 297.112 76.872 297.688C78.312 298.264 79.528 299.032 80.52 299.992C81.544 300.92 82.312 301.944 82.824 303.064C83.368 304.184 83.672 305.288 83.736 306.376H79.272C79.112 305.416 78.744 304.504 78.168 303.64C77.592 302.776 76.76 302.072 75.672 301.528C74.616 300.952 73.288 300.664 71.688 300.664C70.504 300.664 69.384 300.872 68.328 301.288C67.272 301.704 66.408 302.312 65.736 303.112C65.096 303.912 64.776 304.872 64.776 305.992C64.776 307.272 65.128 308.28 65.832 309.016C66.536 309.752 67.448 310.328 68.568 310.744C69.72 311.16 70.984 311.528 72.36 311.848C73.736 312.168 75.112 312.52 76.488 312.904C77.864 313.288 79.112 313.816 80.232 314.488C81.384 315.16 82.312 316.072 83.016 317.224C83.72 318.344 84.072 319.816 84.072 321.64C84.072 323.816 83.56 325.656 82.536 327.16C81.512 328.632 80.104 329.736 78.312 330.472C76.552 331.208 74.504 331.576 72.168 331.576ZM91.4685 331V297.4H111.149V301.24H95.6925V311.896H108.221V315.64H95.6925V327.16H111.149V331H91.4685ZM126.05 331L114.29 297.4H118.322L128.066 325.288L137.81 297.4H141.842L130.13 331H126.05ZM146.875 331V297.4H166.555V301.24H151.099V311.896H163.627V315.64H151.099V327.16H166.555V331H146.875ZM173.873 331V297.4H180.017L194.753 324.952V297.4H198.977V331H193.457L178.097 303.256V331H173.873Z" fill="#334155"/>
<rect x="14.55" y="16.2166" width="231.9" height="364.348" rx="8.5" stroke="#FFC400" stroke-width="3"/>
</svg>
