<svg width="261" height="397" viewBox="0 0 261 397" fill="none" xmlns="http://www.w3.org/2000/svg">
<rect width="261" height="396.215" rx="10" fill="#334155"/>
<path d="M111.2 226.792L146 172.192C144.8 173.658 142.6 174.858 139.4 175.791C136.333 176.725 133.267 177.192 130.2 177.192C122.467 177.192 115.2 175.192 108.4 171.191C101.733 167.191 96.3333 161.791 92.2 154.991C88.2 148.191 86.2 140.591 86.2 132.191C86.2 122.858 88.0667 114.658 91.8 107.592C95.5333 100.391 100.8 94.7248 107.6 90.5915C114.4 86.4582 122.467 84.3915 131.8 84.3915C141.533 84.3915 149.8 86.4582 156.6 90.5915C163.533 94.7248 168.8 100.391 172.4 107.592C176.133 114.658 178 122.858 178 132.191C178 138.725 176.733 144.992 174.2 150.992C171.8 156.992 169.067 162.525 166 167.592L131 226.792H111.2ZM132.4 161.992C138.667 161.992 143.867 160.525 148 157.592C152.133 154.658 155.267 150.925 157.4 146.392C159.533 141.725 160.6 137.058 160.6 132.391C160.6 126.525 159.533 121.191 157.4 116.391C155.267 111.458 152.067 107.591 147.8 104.792C143.533 101.858 138.133 100.391 131.6 100.391C122.933 100.391 116.133 103.391 111.2 109.392C106.267 115.258 103.8 122.925 103.8 132.391C103.8 137.058 104.933 141.725 107.2 146.392C109.467 150.925 112.733 154.658 117 157.592C121.267 160.525 126.4 161.992 132.4 161.992Z" fill="#C97748"/>
<rect y="283.577" width="261" height="62.2624" fill="#C97748"/>
<path d="M75.56 331V297.4H81.704L96.44 324.952V297.4H100.664V331H95.144L79.784 303.256V331H75.56ZM108.819 331V327.448H114.531V301.048H108.819V297.4H124.467V301.048H118.755V327.352H124.467V331H108.819ZM132.607 331V297.4H138.751L153.487 324.952V297.4H157.711V331H152.191L136.831 303.256V331H132.607ZM166.922 331V297.4H186.602V301.24H171.146V311.896H183.674V315.64H171.146V327.16H186.602V331H166.922Z" fill="#334155"/>
<rect x="14.55" y="16.2166" width="231.9" height="364.348" rx="8.5" stroke="#FFC400" stroke-width="3"/>
</svg>
