<svg width="261" height="397" viewBox="0 0 261 397" fill="none" xmlns="http://www.w3.org/2000/svg">
<rect width="261" height="396.215" rx="10" fill="#3B82F6"/>
<rect x="14.55" y="16.2166" width="231.9" height="364.348" rx="8.5" stroke="#FFC400" stroke-width="3"/>
<path d="M0 175.073L261 117V222.997L0 282V175.073Z" fill="#F7EED2"/>
<path d="M30.0873 256.421L17.3689 199.646L54.9599 191.225L57.177 201.122L31.5895 206.854L34.6201 220.382L57.7126 215.209L59.9296 225.106L36.8372 230.279L42.091 253.731L30.0873 256.421ZM75.7524 246.191L63.034 189.416L75.0376 186.727L85.539 233.605L109.879 228.152L112.096 238.049L75.7524 246.191ZM119.33 176.805L132.049 233.579L120.045 236.268L107.327 179.494L119.33 176.805ZM141.925 231.367L129.206 174.592L151.606 169.575C155.912 168.61 159.765 168.611 163.164 169.576C166.559 170.524 169.377 172.27 171.616 174.816C173.87 177.339 175.419 180.485 176.264 184.255C177.108 188.026 177.04 191.534 176.06 194.782C175.079 198.029 173.226 200.803 170.5 203.102C167.792 205.397 164.257 207.033 159.896 208.01L145.619 211.208L143.464 201.589L155.8 198.825C158.11 198.308 159.925 197.484 161.244 196.354C162.577 195.201 163.454 193.831 163.875 192.242C164.309 190.631 164.318 188.892 163.9 187.025C163.477 185.14 162.73 183.58 161.658 182.345C160.6 181.088 159.226 180.241 157.536 179.804C155.843 179.349 153.832 179.382 151.503 179.904L143.408 181.717L153.929 228.678L141.925 231.367Z" fill="#FFC400"/>
<path d="M203.622 217.463L218.57 159.19L218.474 158.753L187.605 165.553L185.171 154.504L230.023 144.624L232.491 155.829L217.574 214.39L203.622 217.463Z" fill="#FFC400"/>
</svg>
