<svg width="261" height="397" viewBox="0 0 261 397" fill="none" xmlns="http://www.w3.org/2000/svg">
<rect width="261" height="396.215" rx="10" fill="#334155"/>
<path d="M93.8 226.792V210.792H119.2V124.391H94.2V108.392C102.067 108.392 107.933 107.925 111.8 106.991C115.8 105.925 118.467 103.858 119.8 100.791C121.133 97.7248 121.8 93.1248 121.8 86.9915H136.8V210.792H163.4V226.792H93.8Z" fill="#AA9F9E"/>
<rect y="283.577" width="261" height="62.2624" fill="#AA9F9E"/>
<path d="M99.856 331.528C97.168 331.528 94.864 331.064 92.944 330.136C91.024 329.208 89.44 327.944 88.192 326.344C86.976 324.712 86.08 322.856 85.504 320.776C84.928 318.664 84.64 316.456 84.64 314.152C84.64 311.848 84.928 309.656 85.504 307.576C86.08 305.464 86.976 303.608 88.192 302.008C89.44 300.376 91.024 299.096 92.944 298.168C94.864 297.24 97.168 296.776 99.856 296.776C102.544 296.776 104.848 297.24 106.768 298.168C108.688 299.096 110.256 300.376 111.472 302.008C112.72 303.608 113.632 305.464 114.208 307.576C114.784 309.656 115.072 311.848 115.072 314.152C115.072 316.456 114.784 318.664 114.208 320.776C113.632 322.856 112.72 324.712 111.472 326.344C110.256 327.944 108.688 329.208 106.768 330.136C104.848 331.064 102.544 331.528 99.856 331.528ZM99.856 327.688C102.384 327.688 104.432 327.08 106 325.864C107.6 324.648 108.768 323.016 109.504 320.968C110.272 318.888 110.656 316.616 110.656 314.152C110.656 311.656 110.272 309.384 109.504 307.336C108.768 305.288 107.6 303.656 106 302.44C104.432 301.224 102.384 300.616 99.856 300.616C97.52 300.616 95.536 301.224 93.904 302.44C92.304 303.656 91.088 305.288 90.256 307.336C89.456 309.384 89.056 311.656 89.056 314.152C89.056 316.616 89.456 318.888 90.256 320.968C91.088 323.016 92.304 324.648 93.904 325.864C95.536 327.08 97.52 327.688 99.856 327.688ZM122.279 331V297.4H128.423L143.159 324.952V297.4H147.383V331H141.863L126.503 303.256V331H122.279ZM156.594 331V297.4H176.274V301.24H160.818V311.896H173.346V315.64H160.818V327.16H176.274V331H156.594Z" fill="#334155"/>
<rect x="14.55" y="16.2166" width="231.9" height="364.348" rx="8.5" stroke="#FFC400" stroke-width="3"/>
</svg>
