<svg width="261" height="397" viewBox="0 0 261 397" fill="none" xmlns="http://www.w3.org/2000/svg">
<rect width="261" height="396.215" rx="10" fill="#334155"/>
<path d="M40.8 226.792V210.792H66.2V124.391H41.2V108.392C49.0667 108.392 54.9333 107.925 58.8 106.991C62.8 105.925 65.4667 103.858 66.8 100.791C68.1333 97.7248 68.8 93.1248 68.8 86.9915H83.8V210.792H110.4V226.792H40.8ZM166.939 229.392C156.406 229.392 147.539 227.325 140.339 223.192C133.272 218.925 127.606 213.258 123.339 206.192C119.206 199.125 116.206 191.192 114.339 182.392C112.606 173.458 111.739 164.392 111.739 155.192C111.739 145.458 112.672 136.258 114.539 127.591C116.406 118.791 119.406 111.058 123.539 104.391C127.806 97.7248 133.472 92.4582 140.539 88.5915C147.606 84.7248 156.406 82.7915 166.939 82.7915C177.339 82.7915 186.072 84.7248 193.139 88.5915C200.206 92.4582 205.806 97.7248 209.939 104.391C214.072 111.058 217.072 118.791 218.939 127.591C220.806 136.258 221.739 145.458 221.739 155.192C221.739 164.392 220.806 173.458 218.939 182.392C217.206 191.192 214.206 199.125 209.939 206.192C205.806 213.258 200.206 218.925 193.139 223.192C186.206 227.325 177.472 229.392 166.939 229.392ZM166.939 213.192C176.006 213.192 183.272 210.592 188.739 205.392C194.206 200.058 198.139 192.992 200.539 184.192C203.072 175.392 204.339 165.658 204.339 154.991C204.339 144.058 203.072 134.392 200.539 125.992C198.139 117.591 194.206 110.991 188.739 106.191C183.406 101.391 176.206 98.9915 167.139 98.9915C157.806 98.9915 150.339 101.391 144.739 106.191C139.139 110.991 135.139 117.591 132.739 125.992C130.339 134.392 129.139 144.058 129.139 154.991C129.139 165.658 130.339 175.392 132.739 184.192C135.139 192.992 139.072 200.058 144.539 205.392C150.139 210.592 157.606 213.192 166.939 213.192ZM166.939 168.791C163.472 168.791 160.472 167.525 157.939 164.992C155.406 162.458 154.139 159.525 154.139 156.192C154.139 152.725 155.406 149.725 157.939 147.191C160.472 144.658 163.472 143.391 166.939 143.391C170.406 143.391 173.339 144.658 175.739 147.191C178.139 149.725 179.339 152.725 179.339 156.192C179.339 159.525 178.139 162.458 175.739 164.992C173.339 167.525 170.406 168.791 166.939 168.791Z" fill="#BC0134"/>
<rect y="283.577" width="261" height="62.2624" fill="#BC0134"/>
<path d="M97.84 331V301.24H88.72V297.4H111.184V301.24H102.064V331H97.84ZM116.609 331V297.4H136.289V301.24H120.833V311.896H133.361V315.64H120.833V327.16H136.289V331H116.609ZM143.607 331V297.4H149.751L164.487 324.952V297.4H168.711V331H163.191L147.831 303.256V331H143.607Z" fill="#334155"/>
<rect x="14.55" y="16.2166" width="231.9" height="364.348" rx="8.5" stroke="#FFC400" stroke-width="3"/>
</svg>
