<svg width="261" height="397" viewBox="0 0 261 397" fill="none" xmlns="http://www.w3.org/2000/svg">
<rect width="261" height="396.215" rx="10" fill="#334155"/>
<path d="M88 226.592V210.592C88 202.192 89.6 195.058 92.8 189.192C96 183.192 100.067 177.992 105 173.592C109.933 169.192 115.2 165.192 120.8 161.592C126.533 157.858 131.867 154.125 136.8 150.391C141.733 146.658 145.8 142.458 149 137.791C152.2 133.125 153.8 127.592 153.8 121.192C153.8 115.591 151.733 110.725 147.6 106.592C143.467 102.458 137.467 100.391 129.6 100.391C124.4 100.391 119.933 101.525 116.2 103.792C112.6 105.925 109.8 108.725 107.8 112.192C105.933 115.525 105 119.125 105 122.991H87.4C87.4 115.791 89 109.392 92.2 103.792C95.8 97.5248 100.933 92.7248 107.6 89.3915C114.4 86.0582 121.8 84.3915 129.8 84.3915C137.533 84.3915 144.467 85.7915 150.6 88.5915C156.867 91.3915 161.8 95.5248 165.4 100.992C169.133 106.458 171 113.192 171 121.192C171 129.325 169.4 136.325 166.2 142.192C163 148.058 158.933 153.192 154 157.592C149.067 161.991 143.733 166.058 138 169.791C132.4 173.525 127.133 177.325 122.2 181.192C117.267 184.925 113.2 189.192 110 193.992C106.8 198.658 105.2 204.192 105.2 210.592H173.2V226.592H88Z" fill="#BDC753"/>
<rect y="283.577" width="261" height="62.2624" fill="#BDC753"/>
<path d="M87.84 331V301.24H78.72V297.4H101.184V301.24H92.064V331H87.84ZM110.497 331L103.297 297.4H107.761L113.377 325.432L121.585 297.4H126.769L134.977 325.432L140.593 297.4H145.057L137.857 331H132.337L124.177 303.688L116.017 331H110.497ZM164.247 331.528C161.559 331.528 159.255 331.064 157.335 330.136C155.415 329.208 153.831 327.944 152.583 326.344C151.367 324.712 150.471 322.856 149.895 320.776C149.319 318.664 149.031 316.456 149.031 314.152C149.031 311.848 149.319 309.656 149.895 307.576C150.471 305.464 151.367 303.608 152.583 302.008C153.831 300.376 155.415 299.096 157.335 298.168C159.255 297.24 161.559 296.776 164.247 296.776C166.935 296.776 169.239 297.24 171.159 298.168C173.079 299.096 174.647 300.376 175.863 302.008C177.111 303.608 178.023 305.464 178.599 307.576C179.175 309.656 179.463 311.848 179.463 314.152C179.463 316.456 179.175 318.664 178.599 320.776C178.023 322.856 177.111 324.712 175.863 326.344C174.647 327.944 173.079 329.208 171.159 330.136C169.239 331.064 166.935 331.528 164.247 331.528ZM164.247 327.688C166.775 327.688 168.823 327.08 170.391 325.864C171.991 324.648 173.159 323.016 173.895 320.968C174.663 318.888 175.047 316.616 175.047 314.152C175.047 311.656 174.663 309.384 173.895 307.336C173.159 305.288 171.991 303.656 170.391 302.44C168.823 301.224 166.775 300.616 164.247 300.616C161.911 300.616 159.927 301.224 158.295 302.44C156.695 303.656 155.479 305.288 154.647 307.336C153.847 309.384 153.447 311.656 153.447 314.152C153.447 316.616 153.847 318.888 154.647 320.968C155.479 323.016 156.695 324.648 158.295 325.864C159.927 327.08 161.911 327.688 164.247 327.688Z" fill="#334155"/>
<rect x="14.55" y="16.2166" width="231.9" height="364.348" rx="8.5" stroke="#FFC400" stroke-width="3"/>
</svg>
