<svg width="261" height="397" viewBox="0 0 261 397" fill="none" xmlns="http://www.w3.org/2000/svg">
<rect width="261" height="396.215" rx="10" fill="#334155"/>
<path d="M130 229.192C122.8 229.192 115.933 227.992 109.4 225.592C103 223.192 97.5333 219.658 93 214.992C88.4667 210.325 85.2667 204.658 83.4 197.992C83 196.125 82.6667 194.258 82.4 192.392C82.1333 190.392 82 188.325 82 186.192L98.8 184.792C98.8 187.058 99.1333 189.525 99.8 192.192C101.8 200.058 105.533 205.525 111 208.592C116.467 211.658 122.867 213.192 130.2 213.192C136.2 213.192 141.467 211.992 146 209.592C150.667 207.058 154.333 203.658 157 199.392C159.667 194.992 161 189.992 161 184.392C161 174.658 157.8 167.458 151.4 162.791C145.133 158.125 137.067 155.792 127.2 155.792H108.2V142.192L149.2 102.792H92.8V86.7915H170.4V103.792L131.8 142.192C142.2 142.192 150.8 144.192 157.6 148.192C164.533 152.058 169.667 157.258 173 163.791C176.467 170.325 178.2 177.458 178.2 185.192C178.2 194.392 175.933 202.325 171.4 208.992C167 215.525 161.133 220.525 153.8 223.992C146.6 227.458 138.667 229.192 130 229.192Z" fill="#CB2F64"/>
<rect y="283.577" width="261" height="62.2624" fill="#CB2F64"/>
<path d="M68.84 331V301.24H59.72V297.4H82.184V301.24H73.064V331H68.84ZM87.5131 331V297.4H91.7371V311.608H107.769V297.4H111.993V331H107.769V315.448H91.7371V331H87.5131ZM121.123 331V297.4H133.267C135.283 297.4 136.947 297.704 138.259 298.312C139.603 298.888 140.675 299.656 141.475 300.616C142.275 301.576 142.835 302.632 143.155 303.784C143.507 304.904 143.682 306.008 143.682 307.096C143.682 308.952 143.139 310.744 142.051 312.472C140.963 314.2 139.283 315.48 137.011 316.312L145.555 331H140.562L132.691 316.984H125.443V331H121.123ZM125.347 313.144H133.267C135.027 313.144 136.483 312.568 137.635 311.416C138.787 310.232 139.363 308.792 139.363 307.096C139.363 306.072 139.107 305.128 138.595 304.264C138.083 303.368 137.363 302.648 136.435 302.104C135.539 301.528 134.499 301.24 133.315 301.24H125.347V313.144ZM152.25 331V297.4H171.93V301.24H156.474V311.896H169.002V315.64H156.474V327.16H171.93V331H152.25ZM179.344 331V297.4H199.024V301.24H183.568V311.896H196.096V315.64H183.568V327.16H199.024V331H179.344Z" fill="#334155"/>
<rect x="14.55" y="16.2166" width="231.9" height="364.348" rx="8.5" stroke="#FFC400" stroke-width="3"/>
</svg>
