<svg width="261" height="397" viewBox="0 0 261 397" fill="none" xmlns="http://www.w3.org/2000/svg">
<rect width="261" height="396.215" rx="10" fill="#334155"/>
<path d="M132.4 229.192C122.8 229.192 114.533 227.125 107.6 222.992C100.667 218.858 95.3333 213.192 91.6 205.992C88 198.792 86.2 190.592 86.2 181.392C86.2 174.858 87.4667 168.592 90 162.592C92.5333 156.458 95.2667 150.925 98.2 145.992L133.2 86.7915H153L118.2 141.392C119.4 139.925 121.533 138.725 124.6 137.791C127.8 136.858 130.933 136.391 134 136.391C141.867 136.391 149.133 138.391 155.8 142.391C162.467 146.391 167.8 151.791 171.8 158.591C175.933 165.258 178 172.858 178 181.392C178 190.592 176.133 198.792 172.4 205.992C168.667 213.192 163.4 218.858 156.6 222.992C149.8 227.125 141.733 229.192 132.4 229.192ZM132.6 213.192C141.267 213.192 148.067 210.192 153 204.192C157.933 198.192 160.4 190.525 160.4 181.192C160.4 176.392 159.267 171.725 157 167.192C154.733 162.658 151.467 158.925 147.2 155.992C143.067 153.058 137.933 151.592 131.8 151.592C125.667 151.592 120.467 153.058 116.2 155.992C112.067 158.925 108.933 162.658 106.8 167.192C104.667 171.725 103.6 176.392 103.6 181.192C103.6 187.058 104.667 192.458 106.8 197.392C108.933 202.192 112.133 206.058 116.4 208.992C120.8 211.792 126.2 213.192 132.6 213.192Z" fill="#822369"/>
<rect y="283.577" width="261" height="62.2624" fill="#822369"/>
<path d="M105.168 331.576C102.384 331.576 100.08 331.064 98.256 330.04C96.464 328.984 95.088 327.624 94.128 325.96C93.2 324.296 92.624 322.552 92.4 320.728H97.056C97.408 322.776 98.288 324.44 99.696 325.72C101.104 327 102.928 327.672 105.168 327.736C106.576 327.736 107.856 327.512 109.008 327.064C110.192 326.584 111.136 325.928 111.84 325.096C112.544 324.232 112.88 323.224 112.848 322.072C112.848 320.76 112.496 319.736 111.792 319C111.088 318.264 110.16 317.688 109.008 317.272C107.888 316.856 106.64 316.504 105.264 316.216C103.888 315.896 102.512 315.544 101.136 315.16C99.76 314.776 98.496 314.248 97.344 313.576C96.224 312.904 95.312 311.992 94.608 310.84C93.904 309.656 93.552 308.12 93.552 306.232C93.552 304.6 93.952 303.064 94.752 301.624C95.584 300.184 96.848 299.032 98.544 298.168C100.24 297.272 102.4 296.824 105.024 296.824C106.848 296.824 108.464 297.112 109.872 297.688C111.312 298.264 112.528 299.032 113.52 299.992C114.544 300.92 115.312 301.944 115.824 303.064C116.368 304.184 116.672 305.288 116.736 306.376H112.272C112.112 305.416 111.744 304.504 111.168 303.64C110.592 302.776 109.76 302.072 108.672 301.528C107.616 300.952 106.288 300.664 104.688 300.664C103.504 300.664 102.384 300.872 101.328 301.288C100.272 301.704 99.408 302.312 98.736 303.112C98.096 303.912 97.776 304.872 97.776 305.992C97.776 307.272 98.128 308.28 98.832 309.016C99.536 309.752 100.448 310.328 101.568 310.744C102.72 311.16 103.984 311.528 105.36 311.848C106.736 312.168 108.112 312.52 109.488 312.904C110.864 313.288 112.112 313.816 113.232 314.488C114.384 315.16 115.312 316.072 116.016 317.224C116.72 318.344 117.072 319.816 117.072 321.64C117.072 323.816 116.56 325.656 115.536 327.16C114.512 328.632 113.104 329.736 111.312 330.472C109.552 331.208 107.504 331.576 105.168 331.576ZM123.413 331V327.448H129.125V301.048H123.413V297.4H139.061V301.048H133.349V327.352H139.061V331H123.413ZM143.457 331L154.017 313.768L143.937 297.4H148.785L156.417 309.832L164.049 297.4H168.849L158.817 313.768L169.377 331H164.577L156.417 317.656L148.209 331H143.457Z" fill="#334155"/>
<rect x="14.55" y="16.2166" width="231.9" height="364.348" rx="8.5" stroke="#FFC400" stroke-width="3"/>
</svg>
