<svg width="261" height="397" viewBox="0 0 261 397" fill="none" xmlns="http://www.w3.org/2000/svg">
<rect width="261" height="396.215" rx="10" fill="#334155"/>
<path d="M129 229.192C120.467 229.192 112.6 227.525 105.4 224.192C98.2 220.858 92.4667 215.992 88.2 209.592C83.9333 203.192 81.8 195.392 81.8 186.192C81.8 177.925 83.7333 170.725 87.6 164.592C91.4667 158.458 96.4667 153.592 102.6 149.992C98.6 146.925 95.2667 142.925 92.6 137.991C89.9333 133.058 88.6 127.325 88.6 120.791C88.6 112.791 90.4 106.125 94 100.791C97.6 95.3248 102.467 91.2582 108.6 88.5915C114.733 85.7915 121.467 84.3915 128.8 84.3915C136.4 84.3915 143.2 85.7915 149.2 88.5915C155.333 91.2582 160.2 95.3248 163.8 100.791C167.4 106.125 169.2 112.791 169.2 120.791C169.2 127.325 167.933 133.058 165.4 137.991C162.867 142.791 159.467 146.792 155.2 149.992C161.467 153.592 166.533 158.458 170.4 164.592C174.4 170.725 176.4 177.925 176.4 186.192C176.4 195.392 174.2 203.192 169.8 209.592C165.533 215.992 159.8 220.858 152.6 224.192C145.4 227.525 137.533 229.192 129 229.192ZM129 143.192C136.467 143.192 142.2 141.125 146.2 136.991C150.333 132.725 152.4 127.325 152.4 120.791C152.4 115.191 150.333 110.258 146.2 105.991C142.067 101.725 136.2 99.5915 128.6 99.5915C121 99.5915 115.2 101.725 111.2 105.991C107.333 110.258 105.4 115.191 105.4 120.791C105.4 127.325 107.467 132.725 111.6 136.991C115.733 141.125 121.533 143.192 129 143.192ZM129.2 213.192C138.133 213.192 145.267 210.725 150.6 205.792C156.067 200.725 158.8 194.192 158.8 186.192C158.8 181.125 157.533 176.525 155 172.392C152.6 168.258 149.133 164.992 144.6 162.592C140.2 160.058 134.933 158.792 128.8 158.792C119.733 158.792 112.533 161.525 107.2 166.991C102 172.325 99.4 178.725 99.4 186.192C99.4 194.192 102.133 200.725 107.6 205.792C113.2 210.725 120.4 213.192 129.2 213.192Z" fill="#A0BE7F"/>
<rect y="283.577" width="261" height="62.2624" fill="#A0BE7F"/>
<path d="M63.656 331V297.4H83.336V301.24H67.88V311.896H80.408V315.64H67.88V327.16H83.336V331H63.656ZM89.6938 331V327.448H95.4058V301.048H89.6938V297.4H105.342V301.048H99.6298V327.352H105.342V331H89.6938ZM126.874 331.576C124.154 331.576 121.818 331.112 119.866 330.184C117.946 329.224 116.362 327.928 115.114 326.296C113.898 324.664 113.002 322.792 112.426 320.68C111.85 318.568 111.562 316.328 111.562 313.96C111.562 311.656 111.834 309.464 112.378 307.384C112.954 305.304 113.834 303.48 115.018 301.912C116.234 300.312 117.77 299.064 119.626 298.168C121.514 297.24 123.77 296.776 126.394 296.776C128.954 296.776 131.178 297.208 133.066 298.072C134.986 298.936 136.554 300.136 137.77 301.672C138.986 303.176 139.818 304.92 140.266 306.904L135.994 307.768C135.45 305.688 134.346 303.976 132.682 302.632C131.018 301.288 128.922 300.616 126.394 300.616C124.09 300.616 122.154 301.208 120.586 302.392C119.05 303.544 117.882 305.128 117.082 307.144C116.282 309.128 115.882 311.368 115.882 313.864C115.882 316.456 116.266 318.808 117.034 320.92C117.802 323.032 118.954 324.712 120.49 325.96C122.026 327.176 123.946 327.784 126.25 327.784C127.946 327.784 129.546 327.336 131.05 326.44C132.554 325.544 133.786 324.312 134.746 322.744C135.706 321.176 136.186 319.384 136.186 317.368H128.602V313.336H140.458V331H137.146L136.522 325.864C135.562 327.72 134.218 329.144 132.49 330.136C130.762 331.096 128.89 331.576 126.874 331.576ZM148.169 331V297.4H152.393V311.608H168.425V297.4H172.649V331H168.425V315.448H152.393V331H148.169ZM187.059 331V301.24H177.939V297.4H200.403V301.24H191.283V331H187.059Z" fill="#334155"/>
<rect x="14.55" y="16.2166" width="231.9" height="364.348" rx="8.5" stroke="#FFC400" stroke-width="3"/>
</svg>
